<mxfile host="app.diagrams.net" modified="2022-07-22T16:13:12.525Z" agent="5.0 (Macintosh; Intel Mac OS X 10_15_7) AppleWebKit/537.36 (KHTML, like Gecko) Chrome/103.0.0.0 Safari/537.36" etag="pMHGxvxrDL1iPxfIESVg" version="20.1.3" type="github">
  <diagram id="kgpKYQtTHZ0yAKxKKP6v" name="Page-1">
    <mxGraphModel dx="1038" dy="558" grid="1" gridSize="10" guides="1" tooltips="1" connect="1" arrows="1" fold="1" page="1" pageScale="1" pageWidth="850" pageHeight="1100" math="0" shadow="0">
      <root>
        <mxCell id="0" />
        <mxCell id="1" parent="0" />
        <mxCell id="3nuBFxr9cyL0pnOWT2aG-1" value="SendMessageProcessor" style="shape=umlLifeline;perimeter=lifelinePerimeter;container=1;collapsible=0;recursiveResize=0;rounded=0;shadow=0;strokeWidth=1;" parent="1" vertex="1">
          <mxGeometry x="80" y="80" width="140" height="520" as="geometry" />
        </mxCell>
        <mxCell id="3nuBFxr9cyL0pnOWT2aG-2" value="" style="points=[];perimeter=orthogonalPerimeter;rounded=0;shadow=0;strokeWidth=1;" parent="3nuBFxr9cyL0pnOWT2aG-1" vertex="1">
          <mxGeometry x="65" y="60" width="10" height="320" as="geometry" />
        </mxCell>
        <mxCell id="3nuBFxr9cyL0pnOWT2aG-3" value="客户端发送消息" style="verticalAlign=bottom;startArrow=oval;endArrow=block;startSize=8;shadow=0;strokeWidth=1;" parent="3nuBFxr9cyL0pnOWT2aG-1" target="3nuBFxr9cyL0pnOWT2aG-2" edge="1">
          <mxGeometry relative="1" as="geometry">
            <mxPoint x="-60" y="70" as="sourcePoint" />
          </mxGeometry>
        </mxCell>
        <mxCell id="_NE9WhoruI-fJDo5ntLo-4" value="asyncProcessRequest&lt;br&gt;不阻塞等待结果&lt;br&gt;同时处理下一条消息请求" style="html=1;verticalAlign=bottom;endArrow=block;rounded=0;edgeStyle=orthogonalEdgeStyle;entryX=1.011;entryY=0.171;entryDx=0;entryDy=0;entryPerimeter=0;" edge="1" parent="3nuBFxr9cyL0pnOWT2aG-1" target="3nuBFxr9cyL0pnOWT2aG-2">
          <mxGeometry x="0.156" y="60" width="80" relative="1" as="geometry">
            <mxPoint x="75" y="70" as="sourcePoint" />
            <mxPoint x="180" y="140" as="targetPoint" />
            <Array as="points">
              <mxPoint x="75" y="80" />
              <mxPoint x="100" y="80" />
              <mxPoint x="100" y="115" />
              <mxPoint x="75" y="115" />
            </Array>
            <mxPoint as="offset" />
          </mxGeometry>
        </mxCell>
        <mxCell id="_NE9WhoruI-fJDo5ntLo-5" value="asyncSendMessage，不阻塞" style="html=1;verticalAlign=bottom;endArrow=block;rounded=0;elbow=vertical;edgeStyle=orthogonalEdgeStyle;entryX=1.233;entryY=0.311;entryDx=0;entryDy=0;entryPerimeter=0;" edge="1" parent="3nuBFxr9cyL0pnOWT2aG-1" target="_NE9WhoruI-fJDo5ntLo-6">
          <mxGeometry x="-0.346" y="60" width="80" relative="1" as="geometry">
            <mxPoint x="75" y="130" as="sourcePoint" />
            <mxPoint x="155" y="130" as="targetPoint" />
            <Array as="points">
              <mxPoint x="75" y="140" />
              <mxPoint x="100" y="140" />
              <mxPoint x="100" y="189" />
              <mxPoint x="77" y="189" />
            </Array>
            <mxPoint as="offset" />
          </mxGeometry>
        </mxCell>
        <mxCell id="_NE9WhoruI-fJDo5ntLo-6" value="" style="html=1;points=[];perimeter=orthogonalPerimeter;" vertex="1" parent="3nuBFxr9cyL0pnOWT2aG-1">
          <mxGeometry x="65" y="170" width="10" height="60" as="geometry" />
        </mxCell>
        <mxCell id="_NE9WhoruI-fJDo5ntLo-7" value="asyncPutMessage" style="edgeStyle=orthogonalEdgeStyle;html=1;align=left;spacingLeft=2;endArrow=block;rounded=0;entryX=1;entryY=0;elbow=vertical;" edge="1" target="_NE9WhoruI-fJDo5ntLo-6" parent="3nuBFxr9cyL0pnOWT2aG-1">
          <mxGeometry x="0.3913" y="-5" relative="1" as="geometry">
            <mxPoint x="65" y="170" as="sourcePoint" />
            <Array as="points">
              <mxPoint x="65" y="150" />
              <mxPoint x="120" y="150" />
              <mxPoint x="120" y="170" />
            </Array>
            <mxPoint as="offset" />
          </mxGeometry>
        </mxCell>
        <mxCell id="_NE9WhoruI-fJDo5ntLo-8" value="commitLog.asyncPutMessage" style="html=1;verticalAlign=bottom;endArrow=block;rounded=0;elbow=vertical;" edge="1" parent="3nuBFxr9cyL0pnOWT2aG-1" target="3nuBFxr9cyL0pnOWT2aG-5">
          <mxGeometry width="80" relative="1" as="geometry">
            <mxPoint x="75" y="209.5" as="sourcePoint" />
            <mxPoint x="155" y="209.5" as="targetPoint" />
          </mxGeometry>
        </mxCell>
        <mxCell id="3nuBFxr9cyL0pnOWT2aG-5" value="CommitLog" style="shape=umlLifeline;perimeter=lifelinePerimeter;container=1;collapsible=0;recursiveResize=0;rounded=0;shadow=0;strokeWidth=1;" parent="1" vertex="1">
          <mxGeometry x="300" y="80" width="100" height="500" as="geometry" />
        </mxCell>
        <mxCell id="3nuBFxr9cyL0pnOWT2aG-6" value="" style="points=[];perimeter=orthogonalPerimeter;rounded=0;shadow=0;strokeWidth=1;" parent="3nuBFxr9cyL0pnOWT2aG-5" vertex="1">
          <mxGeometry x="45" y="180" width="10" height="190" as="geometry" />
        </mxCell>
        <mxCell id="_NE9WhoruI-fJDo5ntLo-9" value="" style="html=1;points=[];perimeter=orthogonalPerimeter;" vertex="1" parent="3nuBFxr9cyL0pnOWT2aG-5">
          <mxGeometry x="45" y="280" width="10" height="60" as="geometry" />
        </mxCell>
        <mxCell id="_NE9WhoruI-fJDo5ntLo-10" value="submitReplicaRequest" style="edgeStyle=orthogonalEdgeStyle;html=1;align=left;spacingLeft=2;endArrow=block;rounded=0;entryX=1;entryY=0;elbow=vertical;" edge="1" target="_NE9WhoruI-fJDo5ntLo-9" parent="3nuBFxr9cyL0pnOWT2aG-5">
          <mxGeometry relative="1" as="geometry">
            <mxPoint x="50" y="260" as="sourcePoint" />
            <Array as="points">
              <mxPoint x="80" y="260" />
            </Array>
          </mxGeometry>
        </mxCell>
        <mxCell id="_NE9WhoruI-fJDo5ntLo-1" value="HAService" style="shape=umlLifeline;perimeter=lifelinePerimeter;whiteSpace=wrap;html=1;container=1;collapsible=0;recursiveResize=0;outlineConnect=0;" vertex="1" parent="1">
          <mxGeometry x="500" y="80" width="100" height="570" as="geometry" />
        </mxCell>
        <mxCell id="_NE9WhoruI-fJDo5ntLo-12" value="" style="html=1;points=[];perimeter=orthogonalPerimeter;" vertex="1" parent="_NE9WhoruI-fJDo5ntLo-1">
          <mxGeometry x="45" y="290" width="10" height="80" as="geometry" />
        </mxCell>
        <mxCell id="_NE9WhoruI-fJDo5ntLo-14" value="" style="html=1;points=[];perimeter=orthogonalPerimeter;" vertex="1" parent="_NE9WhoruI-fJDo5ntLo-1">
          <mxGeometry x="50" y="320" width="10" height="40" as="geometry" />
        </mxCell>
        <mxCell id="_NE9WhoruI-fJDo5ntLo-15" value="同步复制&lt;br&gt;到从节点" style="edgeStyle=orthogonalEdgeStyle;html=1;align=left;spacingLeft=2;endArrow=block;rounded=0;entryX=1;entryY=0;elbow=vertical;" edge="1" target="_NE9WhoruI-fJDo5ntLo-14" parent="_NE9WhoruI-fJDo5ntLo-1">
          <mxGeometry relative="1" as="geometry">
            <mxPoint x="55" y="300" as="sourcePoint" />
            <Array as="points">
              <mxPoint x="85" y="300" />
            </Array>
          </mxGeometry>
        </mxCell>
        <mxCell id="_NE9WhoruI-fJDo5ntLo-13" value="return&amp;nbsp;CompletableFuture" style="html=1;verticalAlign=bottom;endArrow=open;dashed=1;endSize=8;rounded=0;elbow=vertical;exitX=0;exitY=0.556;exitDx=0;exitDy=0;exitPerimeter=0;" edge="1" parent="1" source="_NE9WhoruI-fJDo5ntLo-12" target="3nuBFxr9cyL0pnOWT2aG-5">
          <mxGeometry relative="1" as="geometry">
            <mxPoint x="550" y="410" as="sourcePoint" />
            <mxPoint x="470" y="410" as="targetPoint" />
          </mxGeometry>
        </mxCell>
        <mxCell id="_NE9WhoruI-fJDo5ntLo-11" value="发送&lt;span style=&quot;color: rgb(8, 8, 8); font-family: &amp;quot;JetBrains Mono&amp;quot;, monospace; font-size: 9.8pt;&quot;&gt;GroupCommitRequest&lt;/span&gt;" style="html=1;verticalAlign=bottom;endArrow=block;rounded=0;elbow=vertical;exitX=1.3;exitY=0.158;exitDx=0;exitDy=0;exitPerimeter=0;" edge="1" parent="1" source="_NE9WhoruI-fJDo5ntLo-9" target="_NE9WhoruI-fJDo5ntLo-1">
          <mxGeometry x="0.0025" y="-20" width="80" relative="1" as="geometry">
            <mxPoint x="360" y="370" as="sourcePoint" />
            <mxPoint x="430" y="380" as="targetPoint" />
            <mxPoint as="offset" />
          </mxGeometry>
        </mxCell>
        <mxCell id="_NE9WhoruI-fJDo5ntLo-16" value="同步复制完成&lt;br&gt;调用CompletableFuture#complete&lt;br&gt;将结果返回客户端" style="html=1;verticalAlign=bottom;endArrow=block;rounded=0;elbow=vertical;exitX=0.5;exitY=0.875;exitDx=0;exitDy=0;exitPerimeter=0;" edge="1" parent="1" source="_NE9WhoruI-fJDo5ntLo-12" target="3nuBFxr9cyL0pnOWT2aG-1">
          <mxGeometry x="0.4495" y="-10" width="80" relative="1" as="geometry">
            <mxPoint x="390" y="490" as="sourcePoint" />
            <mxPoint x="470" y="490" as="targetPoint" />
            <mxPoint as="offset" />
          </mxGeometry>
        </mxCell>
        <mxCell id="_NE9WhoruI-fJDo5ntLo-17" value="返回客户端结果" style="html=1;verticalAlign=bottom;startArrow=oval;startFill=1;endArrow=block;startSize=8;rounded=0;elbow=vertical;" edge="1" parent="1" source="3nuBFxr9cyL0pnOWT2aG-2">
          <mxGeometry width="60" relative="1" as="geometry">
            <mxPoint x="30" y="440" as="sourcePoint" />
            <mxPoint x="20" y="440" as="targetPoint" />
          </mxGeometry>
        </mxCell>
      </root>
    </mxGraphModel>
  </diagram>
</mxfile>
